<svg width="18" height="15" viewBox="0 0 18 15" fill="none" xmlns="http://www.w3.org/2000/svg">
<path d="M18 14.3478C18 14.5208 17.9271 14.6867 17.7972 14.809C17.6674 14.9313 17.4913 15 17.3077 15H0.692308C0.508696 15 0.332605 14.9313 0.202772 14.809C0.0729393 14.6867 0 14.5208 0 14.3478C0 14.1749 0.0729393 14.009 0.202772 13.8867C0.332605 13.7644 0.508696 13.6957 0.692308 13.6957H1.38462V8.47826C1.38462 8.30529 1.45755 8.13941 1.58739 8.0171C1.71722 7.8948 1.89331 7.82609 2.07692 7.82609H4.15385C4.33746 7.82609 4.51355 7.8948 4.64338 8.0171C4.77321 8.13941 4.84615 8.30529 4.84615 8.47826V13.6957H6.23077V4.56522C6.23077 4.39225 6.30371 4.22637 6.43354 4.10406C6.56337 3.98175 6.73947 3.91304 6.92308 3.91304H9.69231C9.87592 3.91304 10.052 3.98175 10.1818 4.10406C10.3117 4.22637 10.3846 4.39225 10.3846 4.56522V13.6957H11.7692V0.652174C11.7692 0.479207 11.8422 0.313324 11.972 0.191017C12.1018 0.0687111 12.2779 0 12.4615 0H15.9231C16.1067 0 16.2828 0.0687111 16.4126 0.191017C16.5424 0.313324 16.6154 0.479207 16.6154 0.652174V13.6957H17.3077C17.4913 13.6957 17.6674 13.7644 17.7972 13.8867C17.9271 14.009 18 14.1749 18 14.3478Z" fill="white"/>
</svg>
