<svg width="161" height="36" viewBox="0 0 161 36" fill="none" xmlns="http://www.w3.org/2000/svg">
<g clip-path="url(#clip0_1_173)">
<path d="M149.528 35.7192C147.673 35.7192 145.991 35.419 144.482 34.8186C142.973 34.1866 141.669 33.3019 140.568 32.1642C139.468 30.9951 138.634 29.6206 138.068 28.0406C137.503 26.4291 137.219 24.6437 137.219 22.6846C137.219 20.0303 137.723 17.7393 138.729 15.8118C139.766 13.8527 141.212 12.3359 143.067 11.2615C144.954 10.1555 147.17 9.60254 149.717 9.60254C151.824 9.60254 153.694 9.99755 155.329 10.7876C156.964 11.5775 158.268 12.6835 159.243 14.1054C160.249 15.4958 160.799 17.1231 160.893 18.9875H155.14C154.983 18.0079 154.637 17.1863 154.103 16.5227C153.599 15.8592 152.955 15.3536 152.169 15.006C151.383 14.6584 150.519 14.4846 149.575 14.4846C148.223 14.4846 147.06 14.8322 146.086 15.5274C145.111 16.191 144.372 17.139 143.869 18.3713C143.398 19.6037 143.162 21.0414 143.162 22.6846C143.162 24.4857 143.429 25.9866 143.963 27.1874C144.498 28.3882 145.236 29.3045 146.18 29.9365C147.154 30.5369 148.271 30.8371 149.528 30.8371C150.629 30.8371 151.588 30.6475 152.405 30.2683C153.222 29.8575 153.867 29.3045 154.339 28.6094C154.841 27.8826 155.14 27.061 155.235 26.1446H160.988C160.862 28.0722 160.296 29.7628 159.29 31.2163C158.284 32.6382 156.948 33.7442 155.281 34.5342C153.616 35.3242 151.697 35.7192 149.528 35.7192Z" fill="#252525"/>
<path d="M128.412 35.2927V10.0768H134.307V35.2927H128.412ZM128.412 6.52185V0.739258H134.307V6.52185H128.412Z" fill="#252525"/>
<path d="M120.533 35.2925C118.992 35.2925 117.782 35.0713 116.902 34.629C116.053 34.155 115.455 33.4914 115.11 32.6383C114.764 31.7851 114.591 30.7581 114.591 29.5573V14.8638H109.97V10.0766H114.591V2.96673L120.439 2.35059V10.0766H125.768V14.8638H120.439V28.4671C120.439 29.2572 120.612 29.7943 120.957 30.0787C121.303 30.3315 121.838 30.4579 122.561 30.4579H125.768V35.2925H120.533Z" fill="#252525"/>
<path d="M85.8546 35.2926V10.0765H91.514L91.7498 14.8638H92.0329C92.756 13.0942 93.8561 11.7829 95.3339 10.9297C96.8111 10.045 98.4619 9.60254 100.286 9.60254C101.543 9.60254 102.706 9.80792 103.775 10.2188C104.875 10.5979 105.819 11.2141 106.605 12.0673C107.422 12.8888 108.051 13.979 108.491 15.3378C108.963 16.665 109.199 18.2765 109.199 20.1724V35.2926H103.304V21.4522C103.304 19.8722 103.115 18.5767 102.738 17.5655C102.36 16.5227 101.779 15.7486 100.993 15.243C100.238 14.7374 99.2478 14.4846 98.022 14.4846C96.7016 14.4846 95.5698 14.8006 94.6264 15.4326C93.7149 16.0646 93.0073 16.9019 92.5039 17.9447C92.0012 18.9875 91.7498 20.1408 91.7498 21.4048V35.2926H85.8546Z" fill="#252525"/>
<path d="M66.8938 35.7192C65.3849 35.7192 64.0017 35.4506 62.7441 34.9134C61.5183 34.3446 60.4493 33.5072 59.537 32.4013C58.6572 31.2953 57.9808 29.9365 57.5098 28.325C57.0382 26.6818 56.8023 24.8017 56.8023 22.6846C56.8023 19.809 57.2112 17.4075 58.0281 15.4799C58.8768 13.5208 60.056 12.0515 61.5649 11.0719C63.1056 10.0924 64.8822 9.60254 66.8938 9.60254C68.2778 9.60254 69.5036 9.82374 70.5726 10.2662C71.6727 10.6769 72.616 11.2615 73.4019 12.0199C74.1878 12.7783 74.7852 13.6789 75.194 14.7216H75.5244L75.7603 10.0765H81.4189V35.2926H75.5244V30.6001H75.194C74.5966 32.1485 73.5749 33.3966 72.1288 34.3446C70.6827 35.261 68.938 35.7192 66.8938 35.7192ZM69.111 30.8845C70.5253 30.8845 71.6889 30.5527 72.6005 29.8892C73.5438 29.2255 74.2513 28.3724 74.7223 27.3296C75.194 26.2553 75.4298 25.1335 75.4298 23.9644V21.3574C75.4298 20.1566 75.194 19.0349 74.7223 17.9921C74.2513 16.9178 73.5438 16.0646 72.6005 15.4326C71.6889 14.769 70.5253 14.4372 69.111 14.4372C67.8534 14.4372 66.7526 14.7374 65.8093 15.3378C64.8666 15.9382 64.1274 16.8545 63.5929 18.0869C63.0583 19.2876 62.7914 20.8202 62.7914 22.6846C62.7914 24.4857 63.0583 26.0025 63.5929 27.2348C64.1274 28.4672 64.8666 29.3835 65.8093 29.9839C66.7526 30.5843 67.8534 30.8845 69.111 30.8845Z" fill="#252525"/>
<path d="M47.9945 35.2927V0.739258H53.8897V35.2927H47.9945Z" fill="#252525"/>
<path d="M40.1159 35.2925C38.5752 35.2925 37.365 35.0713 36.4845 34.629C35.6357 34.155 35.0384 33.4914 34.6924 32.6383C34.3464 31.7851 34.1734 30.7581 34.1734 29.5573V14.8638H29.552V10.0766H34.1734V2.96673L40.0213 2.35059V10.0766H45.3502V14.8638H40.0213V28.4671C40.0213 29.2572 40.1943 29.7943 40.5403 30.0787C40.8856 30.3315 41.4201 30.4579 42.1438 30.4579H45.3502V35.2925H40.1159Z" fill="#252525"/>
<path d="M0.206726 35.2927L12.0437 0.739258H20.8155L32.6525 35.2927H26.1917L23.5982 27.709H9.26168L6.7148 35.2927H0.206726ZM10.7706 22.8744H22.1359L18.7403 13.1577L16.5712 6.47444H16.3353L14.1189 13.1577L10.7706 22.8744Z" fill="#252525"/>
</g>
<defs>
<clipPath id="clip0_1_173">
<rect width="161" height="36" fill="white"/>
</clipPath>
</defs>
</svg>
