<svg width="20" height="14" viewBox="0 0 20 14" fill="none" xmlns="http://www.w3.org/2000/svg">
<path d="M18.3814 4.45092C18.3522 4.40758 18.3135 4.37115 18.2681 4.34428C18.2227 4.31741 18.1718 4.30077 18.1191 4.29558C18.0664 4.29039 18.0131 4.29676 17.9632 4.31425C17.9133 4.33174 17.868 4.35989 17.8305 4.39667L11.0972 10.9955C10.9609 11.1142 10.7835 11.1773 10.6012 11.1719C10.419 11.1665 10.2458 11.0931 10.117 10.9666C9.98827 10.84 9.91376 10.6701 9.90876 10.4915C9.90377 10.3129 9.96865 10.1391 10.0901 10.0059L18.3662 1.8961C18.4326 1.83107 18.4852 1.75386 18.5211 1.66889C18.557 1.58392 18.5755 1.49285 18.5755 1.40088C18.5755 1.30891 18.557 1.21785 18.5211 1.13288C18.4852 1.04791 18.4326 0.970702 18.3662 0.905669C18.2998 0.840637 18.2211 0.78905 18.1344 0.753855C18.0477 0.718659 17.9547 0.700545 17.8609 0.700545C17.767 0.700545 17.6741 0.718659 17.5874 0.753855C17.5007 0.78905 17.4219 0.840637 17.3556 0.905669L16.161 2.07721C14.4563 0.772394 12.3659 0.0442553 10.2032 0.00195322C8.04057 -0.0403489 5.92219 0.605465 4.16565 1.84258C2.40912 3.07969 1.10907 4.84145 0.460401 6.86374C-0.188267 8.88603 -0.150604 11.0599 0.567744 13.0594C0.666162 13.3336 0.848747 13.5712 1.09044 13.7396C1.33213 13.908 1.62108 13.999 1.91763 14H18.0832C18.3794 14.0002 18.6684 13.9101 18.9101 13.7422C19.1518 13.5743 19.3342 13.3369 19.4322 13.0629C19.9413 11.6444 20.1113 10.1302 19.9291 8.63713C19.7469 7.14403 19.2174 5.71184 18.3814 4.45092ZM3.7014 11.0611C3.73904 11.243 3.7014 11.4321 3.59676 11.5869C3.49211 11.7416 3.32904 11.8492 3.14341 11.8861C3.09641 11.8956 3.04855 11.9003 3.00057 11.9001C2.83595 11.8999 2.67645 11.844 2.54907 11.7418C2.42169 11.6396 2.33424 11.4974 2.30152 11.3393C2.04612 10.1072 2.10228 8.83253 2.4651 7.62656C2.82791 6.4206 3.48636 5.31997 4.38299 4.42072C5.27962 3.52147 6.38718 2.85093 7.60903 2.4676C8.83088 2.08427 10.1299 1.99981 11.3927 2.22158C11.5792 2.2543 11.7447 2.35827 11.853 2.51062C11.9612 2.66297 12.0033 2.85122 11.9699 3.03396C11.9365 3.2167 11.8304 3.37895 11.6749 3.48503C11.5195 3.59111 11.3274 3.63232 11.1409 3.59961C10.1076 3.4183 9.0446 3.48755 8.0448 3.80131C7.045 4.11507 6.13872 4.66381 5.40503 5.39967C4.67133 6.13553 4.13251 7.03615 3.83556 8.02297C3.5386 9.00978 3.49255 10.0528 3.7014 11.0611Z" fill="white"/>
</svg>
