<svg width="175" height="36" viewBox="0 0 175 36" fill="none" xmlns="http://www.w3.org/2000/svg">
<g clip-path="url(#clip0_1_182)">
<path d="M63.3512 33.6L51.8541 17.2134L63.3512 2.59839H70.0096L58.4237 17.2134L70.0096 33.6H63.3512ZM45.7283 33.6V2.59839H51.4101V33.6H45.7283ZM77.2923 34.0429C76.1088 34.0429 75.0287 33.7846 74.0521 33.2679C73.0754 32.7364 72.2984 31.9761 71.7217 30.987C71.1444 29.9979 70.8557 28.8021 70.8557 27.3997C70.8557 26.1448 71.1444 25.0746 71.7217 24.1888C72.3135 23.2883 73.0826 22.5427 74.0298 21.9523C74.9914 21.347 76.027 20.8746 77.1371 20.535C78.2617 20.1807 79.364 19.9224 80.4441 19.76C81.5392 19.5976 82.5008 19.5016 83.3295 19.4721C83.2699 18.2025 82.9446 17.2798 82.3528 16.7041C81.7611 16.1284 80.755 15.8405 79.3345 15.8405C78.3429 15.8405 77.3734 15.9807 76.4269 16.2612C75.4947 16.527 74.4369 16.9477 73.2528 17.5234L72.7645 13.0504C74.0966 12.4008 75.428 11.9136 76.7594 11.5888C78.1059 11.2641 79.4674 11.1017 80.8434 11.1017C82.5008 11.1017 83.9284 11.3969 85.127 11.9874C86.3255 12.5779 87.2504 13.5301 87.9017 14.844C88.5524 16.1431 88.8777 17.863 88.8777 20.0036V25.9825C88.8777 27.0897 88.9301 27.8943 89.0335 28.3962C89.1369 28.8834 89.3294 29.1934 89.6102 29.3262C89.8917 29.4591 90.2988 29.5255 90.831 29.5255H91.5412L91.0529 34.0429H89.0558C88.2271 34.0429 87.4874 33.9322 86.8361 33.7107C86.1998 33.5041 85.6526 33.2088 85.1937 32.825C84.7349 32.4411 84.365 31.9909 84.0842 31.4742C83.3589 32.2861 82.3751 32.9209 81.132 33.3786C79.904 33.8215 78.6243 34.0429 77.2923 34.0429ZM79.6003 29.8356C80.0886 29.8356 80.6954 29.71 81.4207 29.4591C82.1454 29.1934 82.7966 28.7874 83.374 28.2412V23.1923C82.3378 23.2366 81.3022 23.4064 80.2667 23.7016C79.2305 23.9969 78.3651 24.4324 77.6699 25.0081C76.9741 25.5839 76.6265 26.3073 76.6265 27.1782C76.6265 28.0788 76.8635 28.7505 77.3368 29.1934C77.81 29.6215 78.5648 29.8356 79.6003 29.8356ZM94.6064 33.6V11.456H99.7554L99.9773 15.5748L98.6904 13.8918C99.5335 13.1832 100.54 12.541 101.709 11.9653C102.878 11.3895 104.239 11.1017 105.793 11.1017C108.633 11.1017 110.742 12.0465 112.118 13.9361C113.494 15.811 114.182 18.2468 114.182 21.2436V33.6H108.678V21.6865C108.678 19.6197 108.33 18.0918 107.635 17.1027C106.954 16.1136 105.837 15.619 104.283 15.619C103.026 15.619 101.997 15.9291 101.198 16.5491C100.399 17.1544 99.6965 17.9663 99.0897 18.985L100.111 16.2834V33.6H94.6064ZM125.402 34.0429C123.937 34.0429 122.613 33.9027 121.429 33.6222C120.26 33.3417 119.084 32.9357 117.9 32.4042L118.388 27.7097C119.528 28.374 120.645 28.9129 121.74 29.3262C122.849 29.7248 124.011 29.9241 125.224 29.9241C126.319 29.9241 127.155 29.7469 127.733 29.3926C128.309 29.0383 128.598 28.4773 128.598 27.7097C128.598 27.1339 128.443 26.6616 128.132 26.2925C127.836 25.9234 127.385 25.5913 126.778 25.296C126.171 25.0008 125.417 24.6834 124.514 24.3438C123.153 23.8419 121.991 23.2957 121.03 22.7052C120.082 22.1146 119.358 21.406 118.854 20.5793C118.366 19.7379 118.122 18.7045 118.122 17.4792C118.122 16.2096 118.455 15.0876 119.121 14.1133C119.787 13.1389 120.734 12.3786 121.962 11.8324C123.19 11.2862 124.647 11.0131 126.334 11.0131C127.74 11.0131 128.997 11.1681 130.107 11.4781C131.232 11.7882 132.268 12.2089 133.215 12.7404L132.726 17.4349C131.735 16.741 130.736 16.1727 129.73 15.7298C128.724 15.2721 127.621 15.0433 126.423 15.0433C125.476 15.0433 124.744 15.2352 124.225 15.619C123.708 16.0029 123.449 16.5491 123.449 17.2577C123.449 18.114 123.812 18.7561 124.536 19.1842C125.262 19.6123 126.423 20.1364 128.021 20.7565C129.057 21.1551 129.952 21.5684 130.706 21.9966C131.476 22.4247 132.112 22.897 132.615 23.4138C133.118 23.9305 133.488 24.5209 133.725 25.1853C133.977 25.8348 134.102 26.5878 134.102 27.444C134.102 28.8465 133.762 30.0422 133.081 31.0313C132.415 32.0056 131.432 32.7511 130.13 33.2679C128.842 33.7846 127.266 34.0429 125.402 34.0429ZM142.663 34.0429C141.479 34.0429 140.399 33.7846 139.423 33.2679C138.446 32.7364 137.669 31.9761 137.092 30.987C136.515 29.9979 136.226 28.8021 136.226 27.3997C136.226 26.1448 136.515 25.0746 137.092 24.1888C137.684 23.2883 138.453 22.5427 139.4 21.9523C140.362 21.347 141.398 20.8746 142.508 20.535C143.632 20.1807 144.735 19.9224 145.815 19.76C146.91 19.5976 147.871 19.5016 148.7 19.4721C148.641 18.2025 148.315 17.2798 147.723 16.7041C147.132 16.1284 146.125 15.8405 144.705 15.8405C143.713 15.8405 142.744 15.9807 141.798 16.2612C140.865 16.527 139.807 16.9477 138.623 17.5234L138.135 13.0504C139.467 12.4008 140.799 11.9136 142.13 11.5888C143.477 11.2641 144.838 11.1017 146.214 11.1017C147.871 11.1017 149.299 11.3969 150.498 11.9874C151.696 12.5779 152.621 13.5301 153.272 14.844C153.923 16.1431 154.248 17.863 154.248 20.0036V25.9825C154.248 27.0897 154.3 27.8943 154.404 28.3962C154.508 28.8834 154.7 29.1934 154.981 29.3262C155.262 29.4591 155.669 29.5255 156.202 29.5255H156.912L156.424 34.0429H154.426C153.598 34.0429 152.858 33.9322 152.207 33.7107C151.57 33.5041 151.023 33.2088 150.564 32.825C150.105 32.4411 149.736 31.9909 149.454 31.4742C148.73 32.2861 147.746 32.9209 146.503 33.3786C145.275 33.8215 143.994 34.0429 142.663 34.0429ZM144.971 29.8356C145.459 29.8356 146.066 29.71 146.791 29.4591C147.516 29.1934 148.167 28.7874 148.744 28.2412V23.1923C147.708 23.2366 146.673 23.4064 145.637 23.7016C144.601 23.9969 143.736 24.4324 143.04 25.0081C142.345 25.5839 141.997 26.3073 141.997 27.1782C141.997 28.0788 142.233 28.7505 142.707 29.1934C143.181 29.6215 143.935 29.8356 144.971 29.8356ZM166.28 34.0429C164.815 34.0429 163.491 33.9027 162.307 33.6222C161.138 33.3417 159.962 32.9357 158.779 32.4042L159.267 27.7097C160.406 28.374 161.523 28.9129 162.618 29.3262C163.728 29.7248 164.889 29.9241 166.103 29.9241C167.198 29.9241 168.034 29.7469 168.61 29.3926C169.188 29.0383 169.476 28.4773 169.476 27.7097C169.476 27.1339 169.321 26.6616 169.01 26.2925C168.714 25.9234 168.263 25.5913 167.656 25.296C167.05 25.0008 166.295 24.6834 165.392 24.3438C164.031 23.8419 162.87 23.2957 161.908 22.7052C160.961 22.1146 160.236 21.406 159.733 20.5793C159.245 19.7379 159 18.7045 159 17.4792C159 16.2096 159.333 15.0876 159.999 14.1133C160.665 13.1389 161.612 12.3786 162.84 11.8324C164.068 11.2862 165.525 11.0131 167.212 11.0131C168.618 11.0131 169.876 11.1681 170.985 11.4781C172.11 11.7882 173.146 12.2089 174.093 12.7404L173.604 17.4349C172.613 16.741 171.614 16.1727 170.608 15.7298C169.602 15.2721 168.5 15.0433 167.301 15.0433C166.354 15.0433 165.622 15.2352 165.104 15.619C164.586 16.0029 164.327 16.5491 164.327 17.2577C164.327 18.114 164.689 18.7561 165.415 19.1842C166.14 19.6123 167.301 20.1364 168.899 20.7565C169.935 21.1551 170.83 21.5684 171.585 21.9966C172.354 22.4247 172.99 22.897 173.494 23.4138C173.996 23.9305 174.367 24.5209 174.603 25.1853C174.855 25.8348 174.981 26.5878 174.981 27.444C174.981 28.8465 174.64 30.0422 173.96 31.0313C173.294 32.0056 172.31 32.7511 171.007 33.2679C169.721 33.7846 168.144 34.0429 166.28 34.0429Z" fill="#252525"/>
<path d="M26.0282 26.3982V0.310364L35.4604 9.6019V35.6897H9.31283L0 26.3982H26.0282Z" fill="#252525"/>
<path d="M13.1335 0.310364H0V13.4138H13.1335V0.310364Z" fill="#252525"/>
</g>
<defs>
<clipPath id="clip0_1_182">
<rect width="175" height="36" fill="white"/>
</clipPath>
</defs>
</svg>
