<svg width="16" height="19" viewBox="0 0 16 19" fill="none" xmlns="http://www.w3.org/2000/svg">
<path d="M15.7873 3.8676L12.1509 0.21375C12.0833 0.14591 12.0031 0.0921149 11.9148 0.055439C11.8265 0.0187631 11.7319 -7.52589e-05 11.6364 2.25953e-07H4.36364C3.97787 2.25953e-07 3.6079 0.153983 3.33512 0.428075C3.06234 0.702166 2.90909 1.07391 2.90909 1.46154V2.92308H1.45455C1.06878 2.92308 0.698807 3.07706 0.426026 3.35115C0.153246 3.62524 0 3.99699 0 4.38462V17.5385C0 17.9261 0.153246 18.2978 0.426026 18.5719C0.698807 18.846 1.06878 19 1.45455 19H11.6364C12.0221 19 12.3921 18.846 12.6649 18.5719C12.9377 18.2978 13.0909 17.9261 13.0909 17.5385V16.0769H14.5455C14.9312 16.0769 15.3012 15.9229 15.574 15.6488C15.8468 15.3748 16 15.003 16 14.6154V4.38462C16.0001 4.28862 15.9813 4.19355 15.9448 4.10484C15.9083 4.01613 15.8548 3.93551 15.7873 3.8676ZM8.72727 15.3462H4.36364C4.17075 15.3462 3.98577 15.2692 3.84938 15.1321C3.71299 14.9951 3.63636 14.8092 3.63636 14.6154C3.63636 14.4216 3.71299 14.2357 3.84938 14.0987C3.98577 13.9616 4.17075 13.8846 4.36364 13.8846H8.72727C8.92016 13.8846 9.10514 13.9616 9.24153 14.0987C9.37792 14.2357 9.45455 14.4216 9.45455 14.6154C9.45455 14.8092 9.37792 14.9951 9.24153 15.1321C9.10514 15.2692 8.92016 15.3462 8.72727 15.3462ZM8.72727 12.4231H4.36364C4.17075 12.4231 3.98577 12.3461 3.84938 12.209C3.71299 12.072 3.63636 11.8861 3.63636 11.6923C3.63636 11.4985 3.71299 11.3126 3.84938 11.1756C3.98577 11.0385 4.17075 10.9615 4.36364 10.9615H8.72727C8.92016 10.9615 9.10514 11.0385 9.24153 11.1756C9.37792 11.3126 9.45455 11.4985 9.45455 11.6923C9.45455 11.8861 9.37792 12.072 9.24153 12.209C9.10514 12.3461 8.92016 12.4231 8.72727 12.4231ZM14.5455 14.6154H13.0909V7.30769C13.091 7.2117 13.0722 7.11663 13.0357 7.02792C12.9992 6.93921 12.9457 6.85859 12.8782 6.79067L9.24182 3.13683C9.17423 3.06899 9.094 3.01519 9.00571 2.97852C8.91742 2.94184 8.82281 2.923 8.72727 2.92308H4.36364V1.46154H11.3355L14.5455 4.68697V14.6154Z" fill="white"/>
</svg>
