<svg width="103" height="36" viewBox="0 0 103 36" fill="none" xmlns="http://www.w3.org/2000/svg">
<path d="M12.419 34.9857C9.72544 34.9857 7.42915 34.4973 5.53146 33.5206C3.66397 32.5438 2.05718 31.2313 0.710419 29.583L4.29173 26.2406C5.42444 27.6141 6.66417 28.652 8.01094 29.354C9.38857 30.0561 10.9494 30.4071 12.6941 30.4071C14.7454 30.4071 16.2912 29.9493 17.3319 29.0335C18.3727 28.1178 18.8928 26.8816 18.8928 25.3249C18.8928 24.0734 18.5257 23.0814 17.7909 22.3488C17.0561 21.6162 15.7553 21.0668 13.8879 20.7005L11.0413 20.1969C7.91901 19.6169 5.57743 18.5944 4.01593 17.1292C2.45511 15.664 1.67435 13.6495 1.67435 11.0854C1.67435 9.68132 1.93437 8.41458 2.45511 7.28522C3.00602 6.12528 3.7559 5.1638 4.70474 4.40073C5.68446 3.60707 6.86314 2.99662 8.24077 2.56924C9.61773 2.14194 11.1641 1.92828 12.878 1.92828C15.2964 1.92828 17.393 2.35559 19.1686 3.21027C20.9441 4.03444 22.459 5.24009 23.7145 6.82733L20.0865 10.0323C19.2605 8.96401 18.2499 8.10939 17.0561 7.46836C15.8624 6.82733 14.3777 6.50689 12.6028 6.50689C10.7662 6.50689 9.34261 6.87317 8.33202 7.60574C7.32212 8.3383 6.81717 9.40664 6.81717 10.8107C6.81717 12.1538 7.23018 13.1611 8.0569 13.8326C8.88362 14.4736 10.1686 14.962 11.914 15.2977L14.7605 15.8929C17.9748 16.5035 20.3164 17.5413 21.7859 19.0064C23.2857 20.4715 24.0356 22.4862 24.0356 25.0501C24.0356 26.5458 23.7756 27.9041 23.2548 29.1251C22.7348 30.3461 21.9691 31.3991 20.9592 32.2843C19.9795 33.139 18.7706 33.8105 17.3319 34.2989C15.8932 34.7568 14.2556 34.9857 12.419 34.9857Z" fill="#252525"/>
<path d="M36.8302 34.9858C35.1164 34.9858 33.5857 34.6958 32.239 34.1158C30.8922 33.5359 29.7595 32.7117 28.8408 31.6434C27.9229 30.5445 27.219 29.232 26.7291 27.7058C26.2393 26.1491 25.9943 24.4244 25.9943 22.532C25.9943 20.6395 26.2393 18.9302 26.7291 17.404C27.219 15.8472 27.9229 14.5347 28.8408 13.4664C29.7595 12.3675 30.8922 11.5281 32.239 10.9482C33.5857 10.3682 35.1164 10.0782 36.8302 10.0782C39.2177 10.0782 41.1771 10.6124 42.7078 11.6808C44.2384 12.7491 45.3553 14.1684 46.0593 15.9388L41.927 17.8619C41.5902 16.7629 40.9933 15.893 40.1364 15.252C39.3096 14.5805 38.2078 14.2447 36.8302 14.2447C34.9936 14.2447 33.6008 14.8247 32.652 15.9846C31.734 17.114 31.2744 18.5944 31.2744 20.4258V24.6839C31.2744 26.5153 31.734 28.0111 32.652 29.1709C33.6008 30.3004 34.9936 30.865 36.8302 30.865C38.2997 30.865 39.4626 30.514 40.3202 29.812C41.208 29.0794 41.9119 28.1179 42.432 26.9275L46.2431 28.942C45.4473 30.8956 44.2535 32.3912 42.6618 33.429C41.0701 34.4668 39.1265 34.9858 36.8302 34.9858Z" fill="#252525"/>
<path d="M66.2058 34.4363C64.8899 34.4363 63.8794 34.07 63.1755 33.3375C62.4715 32.5743 62.0427 31.6129 61.8897 30.4529H61.6606C61.2009 31.9486 60.3591 33.078 59.1352 33.8411C57.9105 34.6042 56.4259 34.9858 54.6812 34.9858C52.2017 34.9858 50.2882 34.3447 48.9415 33.0627C47.6256 31.7808 46.9669 30.0561 46.9669 27.8889C46.9669 25.5081 47.8245 23.7225 49.5384 22.532C51.283 21.3415 53.8243 20.7464 57.1606 20.7464H61.4767V18.7317C61.4767 17.2666 61.0788 16.1372 60.283 15.3436C59.4871 14.55 58.2474 14.1532 56.5638 14.1532C55.1552 14.1532 54.0074 14.4584 53.1197 15.0689C52.2319 15.6794 51.482 16.4578 50.87 17.404L47.8856 14.7026C48.6815 13.3595 49.7984 12.2607 51.2371 11.406C52.6758 10.5208 54.5584 10.0782 56.8848 10.0782C59.977 10.0782 62.3487 10.7956 64.0022 12.2302C65.6549 13.6648 66.4816 15.7251 66.4816 18.4113V30.3614H69.0071V34.4363H66.2058ZM56.1048 31.1856C57.6656 31.1856 58.9513 30.8498 59.9612 30.1782C60.9718 29.4762 61.4767 28.5452 61.4767 27.3853V23.9514H57.2526C53.7934 23.9514 52.0638 25.0197 52.0638 27.1564V27.9805C52.0638 29.0489 52.4158 29.8577 53.1197 30.4072C53.8545 30.9261 54.8493 31.1856 56.1048 31.1856Z" fill="#252525"/>
<path d="M76.7131 34.4363C74.9986 34.4363 73.7129 34.009 72.856 33.1543C72.0292 32.2691 71.6162 31.0481 71.6162 29.4914V0.554688H76.6211V30.3613H79.9266V34.4363H76.7131Z" fill="#252525"/>
<path d="M91.7806 34.9858C90.0661 34.9858 88.5355 34.6958 87.1887 34.1158C85.842 33.5359 84.6942 32.7117 83.7453 31.6434C82.7965 30.5445 82.0617 29.232 81.541 27.7058C81.0511 26.1491 80.8069 24.4244 80.8069 22.532C80.8069 20.6395 81.0511 18.9302 81.541 17.404C82.0617 15.8472 82.7965 14.5347 83.7453 13.4664C84.6942 12.3675 85.842 11.5281 87.1887 10.9482C88.5355 10.3682 90.0661 10.0782 91.7806 10.0782C93.5253 10.0782 95.0559 10.3834 96.3718 10.994C97.7193 11.6044 98.8362 12.4591 99.724 13.5579C100.612 14.6263 101.27 15.8777 101.699 17.3124C102.157 18.747 102.387 20.2885 102.387 21.9367V23.814H85.995V24.5923C85.995 26.4238 86.5308 27.9347 87.6024 29.1252C88.7043 30.285 90.2651 30.865 92.2856 30.865C93.7551 30.865 94.9949 30.5445 96.0048 29.9035C97.0147 29.2625 97.8723 28.3926 98.5762 27.2937L101.515 30.1782C100.627 31.6434 99.3412 32.8186 97.6575 33.7038C95.9739 34.5584 94.0152 34.9858 91.7806 34.9858ZM91.7806 13.9701C90.9237 13.9701 90.1272 14.1226 89.3931 14.4279C88.6885 14.7331 88.0765 15.1604 87.5565 15.7099C87.0666 16.2593 86.6838 16.9156 86.408 17.6786C86.1329 18.4418 85.995 19.2812 85.995 20.1969V20.5174H97.1066V20.0596C97.1066 18.2281 96.6325 16.7629 95.683 15.6641C94.7342 14.5347 93.4334 13.9701 91.7806 13.9701Z" fill="#252525"/>
</svg>
