<svg width="127" height="36" viewBox="0 0 127 36" fill="none" xmlns="http://www.w3.org/2000/svg">
<g clip-path="url(#clip0_1_186)">
<path d="M29.0117 5.97506C29.613 6.61404 30.5303 6.93348 31.763 6.93348C32.9957 6.93348 33.8979 6.61404 34.4691 5.97506C35.0409 5.30569 35.3262 4.48418 35.3262 3.51054C35.3262 2.47606 35.0409 1.63933 34.4691 1.0004C33.8979 0.361422 32.9957 0.0419312 31.763 0.0419312C30.5303 0.0419312 29.613 0.361422 29.0117 1.0004C28.4399 1.63933 28.1546 2.47606 28.1546 3.51054C28.1546 4.48418 28.4399 5.30569 29.0117 5.97506Z" fill="#252525"/>
<path d="M0.377991 9.90002L8.04609 34.6822H18.1044L24.7348 9.90002H18.6912L13.7018 29.4794H12.6367L6.82844 9.90002H0.377991Z" fill="#252525"/>
<path d="M49.5882 35.4582C46.2206 35.4582 43.5741 34.7432 41.6498 33.3132C39.7556 31.8528 38.7631 29.8443 38.6729 27.2888H44.3108C44.4011 28.1408 44.8675 28.9167 45.709 29.6165C46.5511 30.3162 47.8746 30.6658 49.6785 30.6658C51.182 30.6658 52.3696 30.3923 53.2417 29.8443C54.1439 29.2967 54.5948 28.5513 54.5948 27.608C54.5948 26.7866 54.2492 26.1324 53.5577 25.6456C52.8962 25.1588 51.7532 24.8393 50.1293 24.6872L47.9643 24.459C45.2281 24.1547 43.1233 23.3636 41.6498 22.0857C40.1764 20.8079 39.4397 19.1039 39.4397 16.9741C39.4397 15.2703 39.8604 13.8402 40.7025 12.684C41.5445 11.5279 42.7025 10.6607 44.1759 10.0826C45.6789 9.47407 47.3931 9.1698 49.3179 9.1698C52.3244 9.1698 54.7603 9.83917 56.6249 11.1779C58.489 12.5167 59.4665 14.4792 59.5567 17.0654H53.9182C53.8581 16.2135 53.4373 15.4833 52.6554 14.8747C51.8736 14.2662 50.7462 13.9619 49.2728 13.9619C47.9493 13.9619 46.9272 14.2206 46.2055 14.7378C45.4839 15.2551 45.1228 15.9244 45.1228 16.7459C45.1228 17.537 45.4086 18.1455 45.9799 18.5715C46.5812 18.9975 47.5436 19.2865 48.8665 19.4387L51.0316 19.6669C53.9182 19.9711 56.1735 20.7774 57.7974 22.0857C59.4514 23.3941 60.2784 25.1588 60.2784 27.3801C60.2784 29.0227 59.827 30.4527 58.9253 31.6701C58.0532 32.8565 56.82 33.7846 55.2267 34.4539C53.6329 35.1232 51.7532 35.4582 49.5882 35.4582Z" fill="#252525"/>
<path d="M63.9238 5.97506C64.5256 6.61404 65.4424 6.93348 66.6756 6.93348C67.9083 6.93348 68.8105 6.61404 69.3818 5.97506C69.953 5.30569 70.2388 4.48418 70.2388 3.51054C70.2388 2.47606 69.953 1.63933 69.3818 1.0004C68.8105 0.361422 67.9083 0.0419312 66.6756 0.0419312C65.4424 0.0419312 64.5256 0.361422 63.9238 1.0004C63.3526 1.63933 63.0673 2.47606 63.0673 3.51054C63.0673 4.48418 63.3526 5.30569 63.9238 5.97506Z" fill="#252525"/>
<path fill-rule="evenodd" clip-rule="evenodd" d="M87.3875 35.5495C85.2225 35.5495 83.3133 35.1993 81.6593 34.4995C80.0053 33.7998 78.6071 32.8564 77.4642 31.67C76.3217 30.4526 75.4496 29.0836 74.8483 27.5622C74.2771 26.0411 73.9912 24.4589 73.9912 22.8159V21.8575C73.9912 20.1536 74.2921 18.541 74.8934 17.0197C75.5248 15.468 76.412 14.0988 77.5544 12.9122C78.7275 11.6952 80.1407 10.7519 81.7947 10.0825C83.4482 9.38272 85.3128 9.03284 87.3875 9.03284C89.4623 9.03284 91.3269 9.38272 92.9804 10.0825C94.6344 10.7519 96.0326 11.6952 97.1755 12.9122C98.348 14.0988 99.2352 15.468 99.8365 17.0197C100.438 18.541 100.739 20.1536 100.739 21.8575V22.8159C100.739 24.4589 100.438 26.0411 99.8365 27.5622C99.2653 29.0836 98.4082 30.4526 97.2658 31.67C96.1228 32.8564 94.7246 33.7998 93.0707 34.4995C91.4172 35.1993 89.5225 35.5495 87.3875 35.5495ZM87.3875 30.1183C88.9212 30.1183 90.2141 29.7833 91.2667 29.114C92.3189 28.4142 93.1158 27.4861 93.6574 26.3302C94.1986 25.1435 94.4689 23.8047 94.4689 22.3139C94.4689 20.7926 94.1835 19.4538 93.6123 18.2976C93.0707 17.111 92.2587 16.183 91.1765 15.5136C90.1238 14.8138 88.861 14.4639 87.3875 14.4639C85.9141 14.4639 84.6363 14.8138 83.5535 15.5136C82.5014 16.183 81.6894 17.111 81.1177 18.2976C80.5464 19.4538 80.2611 20.7926 80.2611 22.3139C80.2611 23.8047 80.5314 25.1435 81.0731 26.3302C81.6443 27.4861 82.4562 28.4142 83.5084 29.114C84.561 29.7833 85.8539 30.1183 87.3875 30.1183Z" fill="#252525"/>
<path d="M109.476 14.2358C109.261 14.781 109.08 15.3714 108.935 16.007V9.90004H103.973V34.6823H110.243V20.1232C110.243 18.5106 110.709 17.2327 111.641 16.2895C112.604 15.3159 113.851 14.8291 115.385 14.8291C116.889 14.8291 118.061 15.3006 118.903 16.2439C119.775 17.1871 120.211 18.4193 120.211 19.9406V34.6823H126.481V20.4883C126.481 16.7155 125.729 13.8858 124.226 11.9994C122.722 10.0826 120.512 9.12415 117.595 9.12415H117.324C115.37 9.12415 113.731 9.5501 112.408 10.4021C111.115 11.254 110.138 12.5319 109.476 14.2358Z" fill="#252525"/>
<path d="M29.4625 14.6465V34.6822H35.7324V9.90002H26.0347V14.6465H29.4625Z" fill="#252525"/>
<path d="M64.3752 14.6465V34.6822H70.6446V9.90002H60.9469V14.6465H64.3752Z" fill="#252525"/>
</g>
<defs>
<clipPath id="clip0_1_186">
<rect width="127" height="36" fill="white"/>
</clipPath>
</defs>
</svg>
